<svg width="70" height="50" viewBox="0 0 70 50" fill="none" xmlns="http://www.w3.org/2000/svg">
<path d="M0 45.5714V4.42857C0 4.38095 0.0675024 3.92857 0.202507 3.07143L23.0858 23.7857L0.27001 47C0.0900032 46.3333 0 45.8571 0 45.5714V45.5714ZM3.03761 0.214286C3.35262 0.0714285 3.73513 0 4.18515 0H65.8148C66.2199 0 66.6249 0.0714285 67.0299 0.214286L44.0791 21L41.0415 23.5714L35.0338 28.7857L29.026 23.5714L25.9884 21L3.03761 0.214286ZM3.10511 49.7857L26.1234 26.4286L35.0338 34.0714L43.9441 26.4286L66.9624 49.7857C66.6024 49.9286 66.2199 50 65.8148 50H4.18515C3.82514 50 3.46512 49.9286 3.10511 49.7857V49.7857ZM46.9817 23.7857L69.7975 3.07143C69.9325 3.5 70 3.95238 70 4.42857V45.5714C70 46 69.9325 46.4762 69.7975 47L46.9817 23.7857Z" fill="black"/>
</svg>
