<svg width="82" height="76" viewBox="0 0 82 76" fill="none" xmlns="http://www.w3.org/2000/svg">
<path d="M75.6399 0H6.13296C2.72576 0 0 2.53333 0 5.48889V70.5111C0 73.4667 2.72576 76 6.13296 76H75.867C79.2742 76 82 73.4667 82 70.5111V5.48889C81.7729 2.53333 79.0471 0 75.6399 0ZM24.3047 64.8111H12.0388V28.5H24.0776V64.8111H24.3047ZM18.1717 23.4333C14.3102 23.4333 11.1302 20.4778 11.1302 16.8889C11.1302 13.3 14.3102 10.5556 18.1717 10.5556C22.0332 10.5556 25.2133 13.5111 25.2133 17.1C25.2133 20.6889 22.0332 23.4333 18.1717 23.4333ZM69.7341 64.8111H57.6953V47.0778C57.6953 42.8556 57.6953 37.3667 51.3352 37.3667C44.9751 37.3667 44.0665 42.0111 44.0665 46.6556V64.6H31.8006V28.5H43.385V33.3556H43.6122C45.2022 30.4 49.2909 27.4444 55.1967 27.4444C67.4626 27.4444 69.7341 35.0444 69.7341 44.7556V64.8111Z" fill="black"/>
</svg>
