<svg width="82" height="72" viewBox="0 0 82 72" fill="none" xmlns="http://www.w3.org/2000/svg">
<path d="M69.7183 10.4625C62.0491 3.7125 51.8357 0 40.9817 0C18.5781 0 0.347768 16.0071 0.347768 35.6786C0.347768 41.9625 2.21473 48.1018 5.76562 53.5179L0 72L21.5433 67.0339C27.4737 69.8786 34.1545 71.3732 40.9634 71.3732H40.9817C63.367 71.3732 82 55.3661 82 35.6946C82 26.1643 77.3875 17.2125 69.7183 10.4625ZM40.9817 65.3625C34.9049 65.3625 28.9562 63.9321 23.7763 61.2321L22.55 60.5893L9.77411 63.5304L13.1786 52.5857L12.3732 51.4607C8.98705 46.7357 7.21161 41.2875 7.21161 35.6786C7.21161 19.3339 22.367 6.02679 41 6.02679C50.0237 6.02679 58.4982 9.1125 64.8679 14.7214C71.2375 20.3304 75.1545 27.7714 75.1362 35.6946C75.1362 52.0554 59.5964 65.3625 40.9817 65.3625ZM59.5049 43.1518C58.4982 42.7018 53.5013 40.5482 52.5679 40.2589C51.6344 39.9536 50.9571 39.8089 50.2799 40.7089C49.6027 41.6089 47.6625 43.6018 47.0585 44.2125C46.4728 44.8071 45.8688 44.8875 44.8621 44.4375C38.8951 41.8179 34.9781 39.7607 31.0429 33.8304C29.9996 32.2554 32.0862 32.3679 34.0263 28.9607C34.3558 28.3661 34.1911 27.8518 33.9348 27.4018C33.6786 26.9518 31.6469 22.5643 30.8049 20.7804C29.9812 19.0446 29.1393 19.2857 28.517 19.2536C27.9313 19.2214 27.254 19.2214 26.5768 19.2214C25.8996 19.2214 24.8013 19.4464 23.8679 20.3304C22.9344 21.2304 20.317 23.3839 20.317 27.7714C20.317 32.1589 23.9594 36.4018 24.4536 36.9964C24.9661 37.5911 31.6103 46.5911 41.8054 50.4643C48.2482 52.9071 50.7741 53.1161 53.9955 52.6982C55.954 52.4411 59.9991 50.5446 60.8411 48.4554C61.683 46.3661 61.683 44.5821 61.4268 44.2125C61.1888 43.8107 60.5116 43.5857 59.5049 43.1518Z" fill="black"/>
</svg>
